<?xml version="1.0" encoding="UTF-8"?>
<svg xmlns="http://www.w3.org/2000/svg" viewBox="0 0 260.97 284">
  <g id="_レイヤー_1" data-name="レイヤー 1">
    <path d="M98.81,215.75c-4.15-5.25-.21-10.66,0-26.38.09-6.58.16-11.78-1.24-18.36-.62-2.92-1.38-5.41-1.62-9.62-.17-2.97.07-4.29,0-9.8-.04-3.59-.17-4.93-.21-6.77-.14-6.01.74-10.31,1.6-15.33,3.32-19.43,1.16-19.65,3.91-24.06,2.92-4.7,9.13-10.51,16.27-10.52,10.47-.01,19.11,12.48,20.68,11.05.5-.46-.2-1.95-.18-1.96.06-.02,2.9,9.04,5.88,22.99,1.53,7.15,1.36,7.48,2.43,11.41.92,3.36,1.67,5.4,2.02,8.91.28,2.8.11,4.57,0,7.13-.19,4.36.03,5,.19,13.55.29,16.59-.55,14.96,0,22.28.72,9.46,2.06,11.25.88,16.75-.82,3.82-1.86,8.68-5.7,11.41-5.68,4.04-9.98-1.91-22.85,0-6.88,1.02-10.41,3.43-15.94,1.43-1.18-.43-4.06-1.48-6.13-4.1Z" style="fill: #f9ccb7;"/>
    <path d="M147.96,151.19c-1,1.67-2.8,4.17-5.78,6.25-1.7,1.18-3.11,1.76-5.94,2.92-3.63,1.49-5.76,2.36-8.84,2.9-4.75.83-8.6.3-10.28,0-1.55-.27-4.82-.98-8.51-2.9-1.67-.86-2.79-1.66-4.98-3.22-1.96-1.39-4.57-3.37-7.55-5.95v-6.31l6.88-6.74,38.22.62,6.78,4.01v8.42Z" style="fill: #f1a88c;"/>
    <path d="M78.92,117.38c1.37.89.6,2.94,1.42,6.51.45,1.97,1.15,3.36,2.01,5.09,1.12,2.24,2.23,3.77,3.19,5.09,1.81,2.48,3.37,4.12,5.32,6.15.68.71,2.93,3.05,6.15,5.92,2.29,2.03,3.43,3.04,5.09,4.14,1.96,1.3,3.54,2.03,5.79,3.08,2.76,1.28,4.27,1.99,6.52,2.6,1.03.28,3.84,1,7.57,1.06,1.47.03,4.32-.02,7.81-.83,3.71-.86,6.33-2.15,8.16-3.08.74-.37,3.2-1.64,6.15-3.79,2.27-1.65,3.69-3,6.27-5.44,2.21-2.09,4.15-3.95,6.39-6.68,1.17-1.43,2.01-2.61,3.08-4.08,1.66-2.31,2.05-3.04,2.25-3.43.54-1.06.47-1.21,1.54-4.14,1.38-3.81,1.45-3.45,1.66-4.51.39-2.01.15-3.21.95-3.65.58-.32.95.16,2.01,0,1.04-.16,1.47-.74,2.72-1.66,1.98-1.45,2.21-.97,3.43-2.01.73-.63,1.37-1.73,2.6-3.9.19-.33.8-1.41,2.13-4.02,1.21-2.37,1.81-3.55,2.01-4.14.78-2.29.82-4.22.83-5.68.01-1.41.01-3.47-.83-5.92-.42-1.23-.79-2.27-1.77-3.31-1.3-1.38-2.83-1.86-3.43-2.01-1.95-.5-2.96.14-3.79,0-3.7-.63-1.03-16.41-5.91-27.34-5.24-11.73-18.54-16.4-24.46-18.48-7.67-2.69-16.16-2.16-33.15-1.09-16.45,1.04-21.26,3.31-24.46,6.7-2.1,2.23-4.68,6.21-6.52,10.33-1.68,3.77-2.73,7.65-3.26,9.6-1.47,5.42-.93,5.69-2.17,8.51-.66,1.5-1.63,3.26-1.63,5.43,0,2.86,0,2.9,0,2.9.01,1.75.04,1.87-.07,2.17-.41,1.15-1.37,1.28-2.9,2.61-.31.27-1.37,1.21-2.16,2.5-.78,1.28-.98,2.44-1.36,4.77-.36,2.18-.56,3.38-.34,5,.12.9.23.87,1.12,3.75,1.15,3.73,1.01,3.92,1.61,5.11.37.74,1.12,1.7,2.61,3.64,1.69,2.18,2.55,3.29,3.41,3.98.82.65,2.13,1.71,4.09,2.16,1.45.33,1.7-.03,2.32.38Z" style="fill: #f9ccb9;"/>
    <path d="M167.76,88.16l.85,4.91.76,5.01,4.43-6.81,1.7-5.89,2.88,1.31,3.06,4.37c2.09-5.11,3.22-9.7,3.87-13.3,1.21-6.71,1.06-11.91,1.01-13.3-.22-5.74-1.22-9.98-2.02-13.3-1.05-4.35-1.86-7.68-4.04-11.78-1.84-3.45-3.81-5.86-5.22-7.58-1.43-1.73-3.53-4.25-6.9-6.9-.56-.44-2.85-2.22-6.23-4.04-3.02-1.63-5.76-2.68-7.91-3.37h-2.19c-6.56-5.25-12.78-7.44-16.5-8.42-5.22-1.38-9.63-1.47-12.46-1.52-5.47-.08-9.64.61-12.96,1.18-5.65.97-9.94,2.3-12.12,3.03-2.98,1-6,2.02-9.76,4.04-1.46.78-4.87,2.7-8.75,5.89-1.79,1.47-5,4.14-8.25,8.42-2.3,3.02-3.61,5.52-5.22,8.59-1.81,3.44-3.1,5.92-4.21,9.43-1.41,4.47-1.66,7.97-2.02,12.96-.24,3.35-.46,6.61,0,10.94.27,2.49.68,4.35,1.52,8.08.7,3.13,2.47,11.07,3.58,10.94.47-.05.29-1.51,1.47-3.2.93-1.33,2.2-2.08,3.2-2.53l2.58,8.41,3.87,6.57v-1.01c.42-4.21,1.02-8.65,1.85-13.3.42-2.32.87-4.56,1.35-6.73l9.26-11.11,3.37-6.06v4.04l-.84,6.06,6.45-2.79,4.58-2.93,5.9-5.22,3.92-4.16-.13,6.68-1.36,7.68,1.59-.62,7.34-4.02,4.39-3.39,4.53-5.07-.18,4.62-.36,3.44-1.09,3.17,4.98-2.26,3.44-1.99,3.35-2.26,3.89-3.35,2.9-3.8,1.81-1.97.82,3.15,1.54,3.44,1.99,3.71,2.26,3.53,2.9,3.26,4.44,3.89.18-2.9-.36-4.08-.09-3.26,3.98,7.61,1.45,3.62,1.96,12.24Z" style="fill: #272828;"/>
    <path d="M98.11,93.97c-.15,1.43-.23,2.14,0,2.84.41,1.25,1.34,1.92,1.49,2.03.27.19,1.35.95,2.71.68,1.19-.24,1.87-1.11,2.17-1.49.43-.55.62-1.07.68-1.26.31-.93.19-1.7,0-2.8-.19-1.09-.28-1.64-.68-2.17-.58-.77-1.37-1.04-1.89-1.22-.64-.22-1.94-.66-2.98,0-.6.38-.86.98-1.08,1.49-.08.18-.27.65-.41,1.89Z" style="fill: #262827;"/>
    <path d="M139.5,93.97c-.15,1.43-.23,2.14,0,2.84.41,1.25,1.34,1.92,1.49,2.03.27.19,1.35.95,2.71.68,1.19-.24,1.87-1.11,2.17-1.49.43-.55.62-1.07.68-1.26.31-.93.19-1.7,0-2.8-.19-1.09-.28-1.64-.68-2.17-.58-.77-1.37-1.04-1.89-1.22-.64-.22-1.94-.66-2.98,0-.6.38-.86.98-1.08,1.49-.08.18-.27.65-.41,1.89Z" style="fill: #262827;"/>
    <path d="M86.24,81.74c.04.16.3,1.08,1.16,1.57.36.21,1.02.45,2.73,0,1.84-.48,2.13-1.03,3.64-1.57,1.09-.39,2.19-.45,4.39-.58.8-.05.5,0,4.39-.04,3.58-.04,3.41-.07,3.64-.04,1.2.17,1.97.47,2.65,0,.57-.39.77-1.12.83-1.33.06-.22.22-.83,0-1.49-.05-.15-.3-.85-1.41-1.49-1.06-.61-2.07-.69-3.56-.74-2.2-.08-3.9-.04-4.22-.03-3.9.09-3.44-.18-4.88-.03-1.17.13-2.68.63-5.71,1.63-1.82.6-2.59.92-3.15,1.74-.14.21-.81,1.2-.5,2.4Z" style="fill: #262827;"/>
    <path d="M139.48,76.09c3.13-.08,4.8,0,4.8,0,1.84.09,3.34.16,5.38.44.2.03,1.99.27,4.3.83,1.14.27,2.2.57,3.31,1.32,1.11.75,1.38,1.34,1.49,1.74.17.62.03,1.2,0,1.32-.06.23-.16.64-.5.99-.08.08-.38.39-1.08.58-.83.22-1.55.09-1.99,0-1.35-.28-2.11-.62-2.98-.91-1.39-.46-2.5-.61-3.56-.74-1.22-.16-1.25-.05-3.89-.17-3.65-.15-3.24-.34-4.55-.25-.19.01-1.64.12-3.39,0-.53-.04-1.3-.1-1.74-.66-.18-.23-.24-.46-.33-.82-.11-.42-.3-1.17,0-1.83.16-.35.46-.69,1.24-1.08,1.42-.7,2.79-.75,3.48-.77Z" style="fill: #262827;"/>
    <path d="M115.52,113.3c-.07.89,1.2,1.64,2.27,2.27,1.05.62,1.96.91,2.72,1.15,1.14.36,1.97.48,2.81.6,1.11.16,1.53.14,1.92.05.4-.09,1.3-.28,1.64-1.01.14-.29.24-.8,0-1.05-.23-.24-.64-.08-1.57.01,0,0-.24.02-1.49.04-1.46.02-2.68-.38-3.16-.55-1.24-.42-2.1-.72-2.87-1.53-.54-.57-.73-1.08-1.19-1.09-.48,0-1.04.54-1.09,1.09Z" style="fill: #ec9978;"/>
    <path d="M106.15,125.99c.37.95,1.43,1.6,4.94,2.47,2.54.63,4.6.93,5.83,1.09,2.6.34,4.53.43,5.83.49,2.53.12,3.79.18,5.08,0,1.86-.26,3.33-.77,4.8-1.28,1.85-.65,2.18-.94,3.85-1.48.77-.25,1.48-.72,2.27-.89.27-.06.62-.12.79-.4.28-.45,0-1.28,0-1.28h0c.33.11-.65-.22-.99-.31-.73-.18-1.28.24-2.6.82-.12.05-.77.29-2.07.78-1.57.59-2.35.88-2.91,1.02-.31.08-.97.23-3.68.3-1.83.04-2.05-.01-4.39,0-2.68.01-2.88.09-4.11,0-1.33-.1-2.34-.28-3.26-.44-2.01-.36-3.5-.79-3.85-.89-1.62-.47-2.42-.7-2.79-.89-.65-.33-1.05-.42-1.85-.61-.48-.11-.73-.13-.89,0-.35.29-.14,1.14,0,1.5Z" style="fill: #ec9978;"/>
  </g>
  <g id="_レイヤー_3" data-name="レイヤー 3">
    <rect x="52.25" y="168.49" width="149.55" height="149.55" style="fill: #898989;"/>
    <rect x="21.21" y="181.28" width="31.04" height="161.48" style="fill: #898989;"/>
    <rect x="201.8" y="183.19" width="31.04" height="161.48" style="fill: #898989;"/>
  </g>
</svg>